<svg xmlns="http://www.w3.org/2000/svg" viewBox="0 0 794 1123" font-family="Arial, sans-serif">
<rect width="794" height="1123" fill="#f5f5f5"/>
<text x="397" y="14" text-anchor="middle" font-size="9" fill="#aaa">РУБАШКИ · Распечатайте на обороте листов с карточками (cards-1 и cards-2)</text>

<!-- Шаблон рубашки: тёмный фон, название игры, остров -->

<!-- Back 1: pos 25,22 -->
<g transform="translate(25,22)">
  <rect width="242" height="350" rx="12" fill="#2c3e50" stroke="#1a252f" stroke-width="2"/>
  <rect y="20" width="242" height="8" fill="#e74c3c"/>
  <rect y="322" width="242" height="8" fill="#e74c3c"/>
  <text x="121" y="110" text-anchor="middle" font-size="54">🏝️</text>
  <text x="121" y="160" text-anchor="middle" font-size="18" font-weight="bold" fill="white">ТОРГОВЫЕ</text>
  <text x="121" y="183" text-anchor="middle" font-size="18" font-weight="bold" fill="white">МАРШРУТЫ</text>
  <line x1="30" y1="200" x2="212" y2="200" stroke="white" stroke-width="1" opacity="0.3"/>
  <text x="121" y="222" text-anchor="middle" font-size="11" fill="#bdc3c7">Экономическая</text>
  <text x="121" y="238" text-anchor="middle" font-size="11" fill="#bdc3c7">настольная игра</text>
  <text x="121" y="270" text-anchor="middle" font-size="28">💰</text>
  <text x="121" y="310" text-anchor="middle" font-size="9" fill="#7f8c8d">КАРТОЧКА СОБЫТИЯ</text>
</g>

<!-- Back 2: pos 275,22 -->
<g transform="translate(275,22)">
  <rect width="242" height="350" rx="12" fill="#2c3e50" stroke="#1a252f" stroke-width="2"/>
  <rect y="20" width="242" height="8" fill="#e74c3c"/>
  <rect y="322" width="242" height="8" fill="#e74c3c"/>
  <text x="121" y="110" text-anchor="middle" font-size="54">🏝️</text>
  <text x="121" y="160" text-anchor="middle" font-size="18" font-weight="bold" fill="white">ТОРГОВЫЕ</text>
  <text x="121" y="183" text-anchor="middle" font-size="18" font-weight="bold" fill="white">МАРШРУТЫ</text>
  <line x1="30" y1="200" x2="212" y2="200" stroke="white" stroke-width="1" opacity="0.3"/>
  <text x="121" y="222" text-anchor="middle" font-size="11" fill="#bdc3c7">Экономическая</text>
  <text x="121" y="238" text-anchor="middle" font-size="11" fill="#bdc3c7">настольная игра</text>
  <text x="121" y="270" text-anchor="middle" font-size="28">💰</text>
  <text x="121" y="310" text-anchor="middle" font-size="9" fill="#7f8c8d">КАРТОЧКА СОБЫТИЯ</text>
</g>

<!-- Back 3: pos 525,22 -->
<g transform="translate(525,22)">
  <rect width="242" height="350" rx="12" fill="#2c3e50" stroke="#1a252f" stroke-width="2"/>
  <rect y="20" width="242" height="8" fill="#e74c3c"/>
  <rect y="322" width="242" height="8" fill="#e74c3c"/>
  <text x="121" y="110" text-anchor="middle" font-size="54">🏝️</text>
  <text x="121" y="160" text-anchor="middle" font-size="18" font-weight="bold" fill="white">ТОРГОВЫЕ</text>
  <text x="121" y="183" text-anchor="middle" font-size="18" font-weight="bold" fill="white">МАРШРУТЫ</text>
  <line x1="30" y1="200" x2="212" y2="200" stroke="white" stroke-width="1" opacity="0.3"/>
  <text x="121" y="222" text-anchor="middle" font-size="11" fill="#bdc3c7">Экономическая</text>
  <text x="121" y="238" text-anchor="middle" font-size="11" fill="#bdc3c7">настольная игра</text>
  <text x="121" y="270" text-anchor="middle" font-size="28">💰</text>
  <text x="121" y="310" text-anchor="middle" font-size="9" fill="#7f8c8d">КАРТОЧКА СОБЫТИЯ</text>
</g>

<!-- Back 4: pos 25,380 -->
<g transform="translate(25,380)">
  <rect width="242" height="350" rx="12" fill="#2c3e50" stroke="#1a252f" stroke-width="2"/>
  <rect y="20" width="242" height="8" fill="#e74c3c"/>
  <rect y="322" width="242" height="8" fill="#e74c3c"/>
  <text x="121" y="110" text-anchor="middle" font-size="54">🏝️</text>
  <text x="121" y="160" text-anchor="middle" font-size="18" font-weight="bold" fill="white">ТОРГОВЫЕ</text>
  <text x="121" y="183" text-anchor="middle" font-size="18" font-weight="bold" fill="white">МАРШРУТЫ</text>
  <line x1="30" y1="200" x2="212" y2="200" stroke="white" stroke-width="1" opacity="0.3"/>
  <text x="121" y="222" text-anchor="middle" font-size="11" fill="#bdc3c7">Экономическая</text>
  <text x="121" y="238" text-anchor="middle" font-size="11" fill="#bdc3c7">настольная игра</text>
  <text x="121" y="270" text-anchor="middle" font-size="28">💰</text>
  <text x="121" y="310" text-anchor="middle" font-size="9" fill="#7f8c8d">КАРТОЧКА СОБЫТИЯ</text>
</g>

<!-- Back 5: pos 275,380 -->
<g transform="translate(275,380)">
  <rect width="242" height="350" rx="12" fill="#2c3e50" stroke="#1a252f" stroke-width="2"/>
  <rect y="20" width="242" height="8" fill="#e74c3c"/>
  <rect y="322" width="242" height="8" fill="#e74c3c"/>
  <text x="121" y="110" text-anchor="middle" font-size="54">🏝️</text>
  <text x="121" y="160" text-anchor="middle" font-size="18" font-weight="bold" fill="white">ТОРГОВЫЕ</text>
  <text x="121" y="183" text-anchor="middle" font-size="18" font-weight="bold" fill="white">МАРШРУТЫ</text>
  <line x1="30" y1="200" x2="212" y2="200" stroke="white" stroke-width="1" opacity="0.3"/>
  <text x="121" y="222" text-anchor="middle" font-size="11" fill="#bdc3c7">Экономическая</text>
  <text x="121" y="238" text-anchor="middle" font-size="11" fill="#bdc3c7">настольная игра</text>
  <text x="121" y="270" text-anchor="middle" font-size="28">💰</text>
  <text x="121" y="310" text-anchor="middle" font-size="9" fill="#7f8c8d">КАРТОЧКА СОБЫТИЯ</text>
</g>

<!-- Back 6: pos 525,380 -->
<g transform="translate(525,380)">
  <rect width="242" height="350" rx="12" fill="#2c3e50" stroke="#1a252f" stroke-width="2"/>
  <rect y="20" width="242" height="8" fill="#e74c3c"/>
  <rect y="322" width="242" height="8" fill="#e74c3c"/>
  <text x="121" y="110" text-anchor="middle" font-size="54">🏝️</text>
  <text x="121" y="160" text-anchor="middle" font-size="18" font-weight="bold" fill="white">ТОРГОВЫЕ</text>
  <text x="121" y="183" text-anchor="middle" font-size="18" font-weight="bold" fill="white">МАРШРУТЫ</text>
  <line x1="30" y1="200" x2="212" y2="200" stroke="white" stroke-width="1" opacity="0.3"/>
  <text x="121" y="222" text-anchor="middle" font-size="11" fill="#bdc3c7">Экономическая</text>
  <text x="121" y="238" text-anchor="middle" font-size="11" fill="#bdc3c7">настольная игра</text>
  <text x="121" y="270" text-anchor="middle" font-size="28">💰</text>
  <text x="121" y="310" text-anchor="middle" font-size="9" fill="#7f8c8d">КАРТОЧКА СОБЫТИЯ</text>
</g>

<!-- Back 7: pos 25,738 -->
<g transform="translate(25,738)">
  <rect width="242" height="350" rx="12" fill="#2c3e50" stroke="#1a252f" stroke-width="2"/>
  <rect y="20" width="242" height="8" fill="#e74c3c"/>
  <rect y="322" width="242" height="8" fill="#e74c3c"/>
  <text x="121" y="110" text-anchor="middle" font-size="54">🏝️</text>
  <text x="121" y="160" text-anchor="middle" font-size="18" font-weight="bold" fill="white">ТОРГОВЫЕ</text>
  <text x="121" y="183" text-anchor="middle" font-size="18" font-weight="bold" fill="white">МАРШРУТЫ</text>
  <line x1="30" y1="200" x2="212" y2="200" stroke="white" stroke-width="1" opacity="0.3"/>
  <text x="121" y="222" text-anchor="middle" font-size="11" fill="#bdc3c7">Экономическая</text>
  <text x="121" y="238" text-anchor="middle" font-size="11" fill="#bdc3c7">настольная игра</text>
  <text x="121" y="270" text-anchor="middle" font-size="28">💰</text>
  <text x="121" y="310" text-anchor="middle" font-size="9" fill="#7f8c8d">КАРТОЧКА СОБЫТИЯ</text>
</g>

<!-- Back 8: pos 275,738 -->
<g transform="translate(275,738)">
  <rect width="242" height="350" rx="12" fill="#2c3e50" stroke="#1a252f" stroke-width="2"/>
  <rect y="20" width="242" height="8" fill="#e74c3c"/>
  <rect y="322" width="242" height="8" fill="#e74c3c"/>
  <text x="121" y="110" text-anchor="middle" font-size="54">🏝️</text>
  <text x="121" y="160" text-anchor="middle" font-size="18" font-weight="bold" fill="white">ТОРГОВЫЕ</text>
  <text x="121" y="183" text-anchor="middle" font-size="18" font-weight="bold" fill="white">МАРШРУТЫ</text>
  <line x1="30" y1="200" x2="212" y2="200" stroke="white" stroke-width="1" opacity="0.3"/>
  <text x="121" y="222" text-anchor="middle" font-size="11" fill="#bdc3c7">Экономическая</text>
  <text x="121" y="238" text-anchor="middle" font-size="11" fill="#bdc3c7">настольная игра</text>
  <text x="121" y="270" text-anchor="middle" font-size="28">💰</text>
  <text x="121" y="310" text-anchor="middle" font-size="9" fill="#7f8c8d">КАРТОЧКА СОБЫТИЯ</text>
</g>

<!-- Back 9: pos 525,738 -->
<g transform="translate(525,738)">
  <rect width="242" height="350" rx="12" fill="#2c3e50" stroke="#1a252f" stroke-width="2"/>
  <rect y="20" width="242" height="8" fill="#e74c3c"/>
  <rect y="322" width="242" height="8" fill="#e74c3c"/>
  <text x="121" y="110" text-anchor="middle" font-size="54">🏝️</text>
  <text x="121" y="160" text-anchor="middle" font-size="18" font-weight="bold" fill="white">ТОРГОВЫЕ</text>
  <text x="121" y="183" text-anchor="middle" font-size="18" font-weight="bold" fill="white">МАРШРУТЫ</text>
  <line x1="30" y1="200" x2="212" y2="200" stroke="white" stroke-width="1" opacity="0.3"/>
  <text x="121" y="222" text-anchor="middle" font-size="11" fill="#bdc3c7">Экономическая</text>
  <text x="121" y="238" text-anchor="middle" font-size="11" fill="#bdc3c7">настольная игра</text>
  <text x="121" y="270" text-anchor="middle" font-size="28">💰</text>
  <text x="121" y="310" text-anchor="middle" font-size="9" fill="#7f8c8d">КАРТОЧКА СОБЫТИЯ</text>
</g>

</svg>
